<?xml version="1.0" encoding="UTF-8"?>
<svg className="clock-icon" viewBox="0 0 64 64">
  <path d="M63.219,24.994c-2.038-.716-3.784-2.241-4.703-4.382-.92-2.141-.824-4.458,.06-6.428-2.521-3.77-5.759-6.878-9.452-9.213-1.948,.935-4.262,1.092-6.426,.228-2.165-.864-3.736-2.57-4.504-4.59-4.286-.849-8.774-.825-13.199,.173-.716,2.038-2.242,3.784-4.383,4.703-2.141,.919-4.457,.824-6.428-.06-3.77,2.521-6.879,5.76-9.213,9.452,.935,1.947,1.091,4.262,.228,6.426-.864,2.165-2.571,3.735-4.59,4.504-.849,4.286-.824,8.774,.174,13.199,2.038,.716,3.784,2.242,4.703,4.382,.919,2.141,.823,4.457-.061,6.428,2.521,3.77,5.76,6.879,9.452,9.213,1.948-.935,4.262-1.092,6.426-.228,2.165,.864,3.736,2.571,4.504,4.59,4.285,.85,8.774,.825,13.198-.173,.716-2.037,2.242-3.784,4.382-4.703,2.141-.92,4.458-.824,6.428,.06,3.77-2.521,6.879-5.76,9.214-9.452-.936-1.947-1.092-4.262-.228-6.427,.864-2.165,2.571-3.735,4.59-4.504,.85-4.286,.825-8.774-.173-13.199Zm-31.219,31.006c-13.255,0-24-10.745-24-24S18.745,8,32,8s24,10.745,24,24-10.745,24-24,24Z" />
  <polygon points="31.384 32.616 31.384 32.616 30.263 14.667 28 16.93 28 36 47.07 36 49.333 33.737 31.384 32.616 31.384 32.616" />
  <symbol id="clock-icon" viewBox="0 0 64 64">
    <path d="M63.219,24.994c-2.038-.716-3.784-2.241-4.703-4.382-.92-2.141-.824-4.458,.06-6.428-2.521-3.77-5.759-6.878-9.452-9.213-1.948,.935-4.262,1.092-6.426,.228-2.165-.864-3.736-2.57-4.504-4.59-4.286-.849-8.774-.825-13.199,.173-.716,2.038-2.242,3.784-4.383,4.703-2.141,.919-4.457,.824-6.428-.06-3.77,2.521-6.879,5.76-9.213,9.452,.935,1.947,1.091,4.262,.228,6.426-.864,2.165-2.571,3.735-4.59,4.504-.849,4.286-.824,8.774,.174,13.199,2.038,.716,3.784,2.242,4.703,4.382,.919,2.141,.823,4.457-.061,6.428,2.521,3.77,5.76,6.879,9.452,9.213,1.948-.935,4.262-1.092,6.426-.228,2.165,.864,3.736,2.571,4.504,4.59,4.285,.85,8.774,.825,13.198-.173,.716-2.037,2.242-3.784,4.382-4.703,2.141-.92,4.458-.824,6.428,.06,3.77-2.521,6.879-5.76,9.214-9.452-.936-1.947-1.092-4.262-.228-6.427,.864-2.165,2.571-3.735,4.59-4.504,.85-4.286,.825-8.774-.173-13.199Zm-31.219,31.006c-13.255,0-24-10.745-24-24S18.745,8,32,8s24,10.745,24,24-10.745,24-24,24Z" />
    <polygon points="31.384 32.616 31.384 32.616 30.263 14.667 28 16.93 28 36 47.07 36 49.333 33.737 31.384 32.616 31.384 32.616" />
  </symbol>
</svg>