<?xml version="1.0" encoding="UTF-8"?>
<svg className="code-icon-alt" viewBox="0 0 56 64">
  <g>
    <path d="M0,35.932v11.058c0,.722,.385,1.388,1.01,1.749l9.582,5.529c.448,.258,.949-.242,.69-.69L.943,35.68c-.258-.447-.943-.264-.943,.252Z" />
    <path d="M10.593,9.732L1.01,15.261c-.625,.361-1.01,1.027-1.01,1.749v11.058c0,.517,.684,.7,.943,.252L11.283,10.421c.258-.447-.242-.948-.69-.69Z" />
    <path d="M38.593,5.8L29.01,.271c-.625-.361-1.396-.361-2.021,0l-9.582,5.529c-.448,.258-.264,.942,.253,.942h20.68c.517,0,.7-.684,.253-.942Z" />
    <path d="M56,28.068v-11.058c0-.722-.385-1.388-1.01-1.749l-9.582-5.529c-.448-.258-.949,.242-.69,.69l10.34,17.899c.258,.447,.943,.264,.943-.252Z" />
    <path d="M17.407,58.2l9.582,5.529c.625,.361,1.396,.361,2.021,0l9.582-5.529c.448-.258,.264-.942-.253-.942H17.66c-.517,0-.7,.684-.253,.942Z" />
    <path d="M45.407,54.268l9.582-5.529c.625-.361,1.01-1.027,1.01-1.749v-11.058c0-.517-.684-.7-.943-.252l-10.34,17.899c-.258,.447,.242,.948,.69,.69Z" />
  </g>
  <g>
    <path d="M41.519,41.593c-.257,0-.518-.066-.756-.203-.725-.419-.973-1.345-.555-2.069l3.791-6.564c.27-.467,.27-1.047,0-1.515l-3.791-6.563c-.419-.724-.17-1.651,.555-2.069,.727-.419,1.652-.17,2.07,.554l3.791,6.563c.81,1.401,.81,3.143,0,4.544l-3.791,6.564c-.281,.486-.79,.758-1.314,.758Z" />
    <path d="M23.332,41.593c-.257,0-.518-.066-.756-.204-.725-.418-.973-1.345-.555-2.069l9.334-16.156c.419-.724,1.345-.973,2.07-.554,.725,.418,.973,1.345,.555,2.069l-9.334,16.156c-.281,.486-.79,.758-1.314,.758Z" />
    <path d="M14.482,41.593c-.524,0-1.033-.272-1.314-.758l-3.792-6.564c-.81-1.402-.81-3.142,0-4.543l3.792-6.563c.419-.724,1.344-.973,2.07-.554,.725,.418,.973,1.345,.555,2.069l-3.792,6.563c-.269,.467-.269,1.048,0,1.515l3.791,6.563c.419,.724,.17,1.651-.555,2.069-.239,.138-.499,.204-.756,.204Z" />
  </g>
  <symbol id="code-icon-alt" viewBox="0 0 56 64">
    <path d="M0,35.932v11.058c0,.722,.385,1.388,1.01,1.749l9.582,5.529c.448,.258,.949-.242,.69-.69L.943,35.68c-.258-.447-.943-.264-.943,.252Z" />
    <path d="M10.593,9.732L1.01,15.261c-.625,.361-1.01,1.027-1.01,1.749v11.058c0,.517,.684,.7,.943,.252L11.283,10.421c.258-.447-.242-.948-.69-.69Z" />
    <path d="M38.593,5.8L29.01,.271c-.625-.361-1.396-.361-2.021,0l-9.582,5.529c-.448,.258-.264,.942,.253,.942h20.68c.517,0,.7-.684,.253-.942Z" />
    <path d="M56,28.068v-11.058c0-.722-.385-1.388-1.01-1.749l-9.582-5.529c-.448-.258-.949,.242-.69,.69l10.34,17.899c.258,.447,.943,.264,.943-.252Z" />
    <path d="M17.407,58.2l9.582,5.529c.625,.361,1.396,.361,2.021,0l9.582-5.529c.448-.258,.264-.942-.253-.942H17.66c-.517,0-.7,.684-.253,.942Z" />
    <path d="M45.407,54.268l9.582-5.529c.625-.361,1.01-1.027,1.01-1.749v-11.058c0-.517-.684-.7-.943-.252l-10.34,17.899c-.258,.447,.242,.948,.69,.69Z" />
    <path d="M41.519,41.593c-.257,0-.518-.066-.756-.203-.725-.419-.973-1.345-.555-2.069l3.791-6.564c.27-.467,.27-1.047,0-1.515l-3.791-6.563c-.419-.724-.17-1.651,.555-2.069,.727-.419,1.652-.17,2.07,.554l3.791,6.563c.81,1.401,.81,3.143,0,4.544l-3.791,6.564c-.281,.486-.79,.758-1.314,.758Z" />
    <path d="M23.332,41.593c-.257,0-.518-.066-.756-.204-.725-.418-.973-1.345-.555-2.069l9.334-16.156c.419-.724,1.345-.973,2.07-.554,.725,.418,.973,1.345,.555,2.069l-9.334,16.156c-.281,.486-.79,.758-1.314,.758Z" />
    <path d="M14.482,41.593c-.524,0-1.033-.272-1.314-.758l-3.792-6.564c-.81-1.402-.81-3.142,0-4.543l3.792-6.563c.419-.724,1.344-.973,2.07-.554,.725,.418,.973,1.345,.555,2.069l-3.792,6.563c-.269,.467-.269,1.048,0,1.515l3.791,6.563c.419,.724,.17,1.651-.555,2.069-.239,.138-.499,.204-.756,.204Z" />
  </symbol>
</svg>