<?xml version="1.0" encoding="UTF-8"?>
<svg className="code-icon" viewBox="0 0 56 64">
  <path d="M54.99,15.261L29.01,.271c-.625-.361-1.396-.361-2.021,0L1.01,15.261c-.625,.361-1.01,1.027-1.01,1.749v29.98c0,.721,.385,1.388,1.01,1.749l25.979,14.99c.625,.361,1.396,.361,2.021,0l25.979-14.99c.625-.361,1.01-1.027,1.01-1.749V17.01c0-.722-.385-1.388-1.01-1.749Zm-1.058,17.749l-12.091,20.929c-.361,.625-1.028,1.01-1.75,1.01H15.909c-.722,0-1.389-.385-1.75-1.01L2.069,33.01c-.361-.625-.361-1.395,0-2.02L14.159,10.061c.361-.625,1.028-1.01,1.75-1.01h24.181c.722,0,1.389,.385,1.75,1.01l12.091,20.929c.361,.625,.361,1.395,0,2.02Zm-7.307-3.282c.81,1.401,.81,3.143,0,4.544l-3.791,6.564c-.281,.486-.79,.758-1.314,.758-.257,0-.518-.066-.756-.203-.725-.419-.973-1.345-.555-2.069l3.791-6.564c.27-.467,.27-1.047,0-1.515l-3.791-6.563c-.419-.724-.17-1.651,.555-2.069,.727-.419,1.652-.17,2.07,.554l3.791,6.563Zm-12.645-5.048l-9.334,16.156c-.281,.486-.79,.758-1.314,.758-.257,0-.518-.066-.756-.204-.725-.418-.973-1.345-.555-2.069l9.334-16.156c.419-.724,1.345-.973,2.07-.554,.725,.418,.973,1.345,.555,2.069Zm-21.978,6.563c-.269,.467-.269,1.048,0,1.515l3.791,6.563c.419,.724,.17,1.651-.555,2.069-.239,.138-.499,.204-.756,.204-.524,0-1.033-.272-1.314-.758l-3.792-6.564c-.81-1.402-.81-3.142,0-4.543l3.792-6.563c.419-.724,1.344-.973,2.07-.554,.725,.418,.973,1.345,.555,2.069l-3.792,6.563Z" />
  <symbol id="code-icon" viewBox="0 0 56 64">
    <path d="M54.99,15.261L29.01,.271c-.625-.361-1.396-.361-2.021,0L1.01,15.261c-.625,.361-1.01,1.027-1.01,1.749v29.98c0,.721,.385,1.388,1.01,1.749l25.979,14.99c.625,.361,1.396,.361,2.021,0l25.979-14.99c.625-.361,1.01-1.027,1.01-1.749V17.01c0-.722-.385-1.388-1.01-1.749Zm-1.058,17.749l-12.091,20.929c-.361,.625-1.028,1.01-1.75,1.01H15.909c-.722,0-1.389-.385-1.75-1.01L2.069,33.01c-.361-.625-.361-1.395,0-2.02L14.159,10.061c.361-.625,1.028-1.01,1.75-1.01h24.181c.722,0,1.389,.385,1.75,1.01l12.091,20.929c.361,.625,.361,1.395,0,2.02Zm-7.307-3.282c.81,1.401,.81,3.143,0,4.544l-3.791,6.564c-.281,.486-.79,.758-1.314,.758-.257,0-.518-.066-.756-.203-.725-.419-.973-1.345-.555-2.069l3.791-6.564c.27-.467,.27-1.047,0-1.515l-3.791-6.563c-.419-.724-.17-1.651,.555-2.069,.727-.419,1.652-.17,2.07,.554l3.791,6.563Zm-12.645-5.048l-9.334,16.156c-.281,.486-.79,.758-1.314,.758-.257,0-.518-.066-.756-.204-.725-.418-.973-1.345-.555-2.069l9.334-16.156c.419-.724,1.345-.973,2.07-.554,.725,.418,.973,1.345,.555,2.069Zm-21.978,6.563c-.269,.467-.269,1.048,0,1.515l3.791,6.563c.419,.724,.17,1.651-.555,2.069-.239,.138-.499,.204-.756,.204-.524,0-1.033-.272-1.314-.758l-3.792-6.564c-.81-1.402-.81-3.142,0-4.543l3.792-6.563c.419-.724,1.344-.973,2.07-.554,.725,.418,.973,1.345,.555,2.069l-3.792,6.563Z" />
  </symbol>
</svg>