<?xml version="1.0" encoding="UTF-8"?>
<svg className="connect-icon" viewBox="0 0 48 60">
  <path d="M26.673,20.726h-3.176c-1.131,0-1.925,.238-2.383,.714-.458,.476-.688,1.28-.688,2.409v3.76c0,1.094,.229,1.879,.688,2.355,.458,.478,1.252,.716,2.383,.716h.159c2.435,0,3.653-1.341,3.653-4.025v-5.295c0-.423-.211-.635-.636-.635Z" />
  <path d="M40.971,7.029C36.627,2.686,30.627,0,24,0S11.373,2.686,7.029,7.029C2.687,11.373,0,17.373,0,24c0,7.213,2.687,13.743,7.029,18.47l15.516,16.886c.79,.859,2.121,.859,2.91,0l15.516-16.886c4.343-4.727,7.029-11.257,7.029-18.47,0-6.627-2.686-12.627-7.029-16.971Zm0,21.638c0,2.048-.671,3.725-2.013,5.031-1.342,1.306-3.036,1.959-5.083,1.959h-3.071c-.952,0-1.773-.229-2.462-.689-.688-.458-1.032-1.128-1.032-2.011v-.213h-.211c-.847,1.943-2.595,2.913-5.242,2.913-2.154,0-3.911-.697-5.269-2.092-1.36-1.393-2.039-3.432-2.039-6.116v-3.123c0-2.718,.714-4.837,2.144-6.354,1.43-1.517,3.327-2.277,5.693-2.277h9.16c.775,0,1.166,.37,1.166,1.112v14.296c0,.424,.334,.636,1.005,.636,2.258-.071,3.389-1.252,3.389-3.547v-10.061c0-2.012-.671-3.547-2.013-4.606-1.342-1.06-3.037-1.589-5.083-1.589h-10.007c-2.894,0-5.145,.821-6.75,2.462-1.607,1.643-2.41,3.964-2.41,6.963v8.526c0,2.965,.874,5.277,2.622,6.937,1.748,1.659,4.086,2.489,7.017,2.489h9.53c.742,0,1.112,.37,1.112,1.112v1.588c0,.741-.37,1.112-1.112,1.112h-9.478c-3.954,0-7.192-1.147-9.716-3.442-2.524-2.293-3.786-5.312-3.786-9.054v-9.69c0-3.601,1.183-6.636,3.547-9.107,2.365-2.471,5.366-3.707,9.002-3.707h10.855c3.071,0,5.594,.909,7.571,2.727,1.977,1.819,2.966,4.123,2.966,6.91v10.908Z" />
  <symbol id="connect-icon" viewBox="0 0 48 60">
    <path d="M26.673,20.726h-3.176c-1.131,0-1.925,.238-2.383,.714-.458,.476-.688,1.28-.688,2.409v3.76c0,1.094,.229,1.879,.688,2.355,.458,.478,1.252,.716,2.383,.716h.159c2.435,0,3.653-1.341,3.653-4.025v-5.295c0-.423-.211-.635-.636-.635Z" />
    <path d="M40.971,7.029C36.627,2.686,30.627,0,24,0S11.373,2.686,7.029,7.029C2.687,11.373,0,17.373,0,24c0,7.213,2.687,13.743,7.029,18.47l15.516,16.886c.79,.859,2.121,.859,2.91,0l15.516-16.886c4.343-4.727,7.029-11.257,7.029-18.47,0-6.627-2.686-12.627-7.029-16.971Zm0,21.638c0,2.048-.671,3.725-2.013,5.031-1.342,1.306-3.036,1.959-5.083,1.959h-3.071c-.952,0-1.773-.229-2.462-.689-.688-.458-1.032-1.128-1.032-2.011v-.213h-.211c-.847,1.943-2.595,2.913-5.242,2.913-2.154,0-3.911-.697-5.269-2.092-1.36-1.393-2.039-3.432-2.039-6.116v-3.123c0-2.718,.714-4.837,2.144-6.354,1.43-1.517,3.327-2.277,5.693-2.277h9.16c.775,0,1.166,.37,1.166,1.112v14.296c0,.424,.334,.636,1.005,.636,2.258-.071,3.389-1.252,3.389-3.547v-10.061c0-2.012-.671-3.547-2.013-4.606-1.342-1.06-3.037-1.589-5.083-1.589h-10.007c-2.894,0-5.145,.821-6.75,2.462-1.607,1.643-2.41,3.964-2.41,6.963v8.526c0,2.965,.874,5.277,2.622,6.937,1.748,1.659,4.086,2.489,7.017,2.489h9.53c.742,0,1.112,.37,1.112,1.112v1.588c0,.741-.37,1.112-1.112,1.112h-9.478c-3.954,0-7.192-1.147-9.716-3.442-2.524-2.293-3.786-5.312-3.786-9.054v-9.69c0-3.601,1.183-6.636,3.547-9.107,2.365-2.471,5.366-3.707,9.002-3.707h10.855c3.071,0,5.594,.909,7.571,2.727,1.977,1.819,2.966,4.123,2.966,6.91v10.908Z" />
  </symbol>
</svg>