<?xml version="1.0" encoding="UTF-8"?>
<svg className="crymsica-lion" viewBox="0 0 71.18 64">
  <path d="M11.047,23.198l-.145-2.039-2.034-1.629,2.934,.532,1.66-.117-2.415,3.254Zm30.973,4.568l11.037,12.63-1.433,7.532,14.042,3.27-5.798-11.974-2.283-11.632-14.611-8.385-14.94-4.304,15.308,3.35,16.115,7.903,2.786,10.522,8.936,.809-5.5-6.833-2.434-12.798-21.127-6.017-15.395-.065,15.526-1.261,17.099,4,3.892-6.624-6.628,.324-17.385-3.379-14.448,4.831,14.265-6.411,12.865,1.983L54.745,.241l-11.916,.917L29.441,0l-12.134,10.009,3.536-7.529L10.374,11.24l2.951,2.054-8.114,6.692v.618c-1.565,.692-4.069,1.453-5.211,2.792l.91,1.845,.935,3.297s3.452,1.832,3.785,2.009c-.261-.924,.217-3.866,2.994-3.866,2.167,0,5.842,3.691,6.48,6.196,.384,1.529-1.103,4.626-1.103,4.626-.798,.154-3.554,.218-4.208-.721-.766,2.227-.748,4.946-.748,4.946l6.078,2.37c.405-4.87,3.712-7.53,4.675-8.347l5.649-.007-.744-9.442,2.602-1.386-3.933-4.733,1.327-3.061-3.813-2.804-5.379,.42,5.458-1.436,5.018,3.437-.738,3.439,4,5.345-3.481,1.854c1.114,2.335,1.608,4.623,1.575,6.789-.034,2.223-.671,4.291-1.666,6.202-2.591,4.975-8.061,7.128-8.718,7.4l-7.59,16.231,18.859-11.07,9.219-.867-.695-2.274,2.516-7.585-6.315-12.636,8.895,13.727-1.392,.179-3.842,17.422,10.748-7.754,3.221-12.166-9.351-12.369-12.711-9.87,13.505,9.029Z" fill="#d10000" />
  <symbol id="crymsica-lion" viewBox="0 0 71.18 64">
    <path d="M11.047,23.198l-.145-2.039-2.034-1.629,2.934,.532,1.66-.117-2.415,3.254Zm30.973,4.568l11.037,12.63-1.433,7.532,14.042,3.27-5.798-11.974-2.283-11.632-14.611-8.385-14.94-4.304,15.308,3.35,16.115,7.903,2.786,10.522,8.936,.809-5.5-6.833-2.434-12.798-21.127-6.017-15.395-.065,15.526-1.261,17.099,4,3.892-6.624-6.628,.324-17.385-3.379-14.448,4.831,14.265-6.411,12.865,1.983L54.745,.241l-11.916,.917L29.441,0l-12.134,10.009,3.536-7.529L10.374,11.24l2.951,2.054-8.114,6.692v.618c-1.565,.692-4.069,1.453-5.211,2.792l.91,1.845,.935,3.297s3.452,1.832,3.785,2.009c-.261-.924,.217-3.866,2.994-3.866,2.167,0,5.842,3.691,6.48,6.196,.384,1.529-1.103,4.626-1.103,4.626-.798,.154-3.554,.218-4.208-.721-.766,2.227-.748,4.946-.748,4.946l6.078,2.37c.405-4.87,3.712-7.53,4.675-8.347l5.649-.007-.744-9.442,2.602-1.386-3.933-4.733,1.327-3.061-3.813-2.804-5.379,.42,5.458-1.436,5.018,3.437-.738,3.439,4,5.345-3.481,1.854c1.114,2.335,1.608,4.623,1.575,6.789-.034,2.223-.671,4.291-1.666,6.202-2.591,4.975-8.061,7.128-8.718,7.4l-7.59,16.231,18.859-11.07,9.219-.867-.695-2.274,2.516-7.585-6.315-12.636,8.895,13.727-1.392,.179-3.842,17.422,10.748-7.754,3.221-12.166-9.351-12.369-12.711-9.87,13.505,9.029Z" fill="#d10000" />
  </symbol>
</svg>