<?xml version="1.0" encoding="UTF-8"?>
<svg id="developer-icon" viewBox="0 0 64 24">
  <path d="M53.067,24c-.439,0-.877-.167-1.212-.502-.67-.67-.67-1.754,0-2.424l8.468-8.467c.218-.218,.251-.474,.251-.606,0-.133-.033-.388-.251-.607L51.855,2.926c-.67-.67-.67-1.754,0-2.424s1.754-.67,2.424,0l8.468,8.468c1.672,1.671,1.672,4.39,0,6.061l-8.468,8.467c-.335,.335-.773,.502-1.212,.502Z" />
  <path d="M21.714,24c-.439,0-.877-.167-1.212-.502-.67-.67-.67-1.754,0-2.424L41.073,.502c.67-.67,1.754-.67,2.424,0s.67,1.754,0,2.424L22.926,23.498c-.335,.335-.773,.502-1.212,.502Z" />
  <path d="M10.932,24c-.439,0-.877-.167-1.212-.502L1.253,15.031c-1.67-1.672-1.67-4.39,0-6.061L9.72,.502c.67-.67,1.754-.67,2.424,0s.67,1.754,0,2.424L3.677,11.394c-.334,.334-.334,.879,0,1.213l8.467,8.467c.67,.67,.67,1.754,0,2.424-.335,.335-.773,.502-1.212,.502Z" />
</svg>