<?xml version="1.0" encoding="UTF-8"?>
<svg className="education-icon" viewBox="0 0 64 40">
  <path d="M12.897,17.874v7.983c0,4.357,2.703,8.257,6.783,9.787l10.957,4.108c.879,.33,1.848,.33,2.728,0l10.957-4.108c4.08-1.53,6.783-5.43,6.783-9.787v-7.983l12.208-4.578c.918-.344,.918-1.643,0-1.987L34.236,.405c-1.442-.541-3.03-.541-4.472,0L.689,11.309c-.918,.344-.918,1.643,0,1.987l4.957,1.859v14.974c0,.586,.475,1.061,1.061,1.061h.529c.646,0,1.142-.573,1.05-1.212l-2.101-14.62,6.712,2.517Z" />
  <symbol id="education-icon" viewBox="0 0 64 40">
    <path d="M12.897,17.874v7.983c0,4.357,2.703,8.257,6.783,9.787l10.957,4.108c.879,.33,1.848,.33,2.728,0l10.957-4.108c4.08-1.53,6.783-5.43,6.783-9.787v-7.983l12.208-4.578c.918-.344,.918-1.643,0-1.987L34.236,.405c-1.442-.541-3.03-.541-4.472,0L.689,11.309c-.918,.344-.918,1.643,0,1.987l4.957,1.859v14.974c0,.586,.475,1.061,1.061,1.061h.529c.646,0,1.142-.573,1.05-1.212l-2.101-14.62,6.712,2.517Z" />
  </symbol>
</svg>