<?xml version="1.0" encoding="UTF-8"?>
<svg id="jb-logo" xmlns="http://www.w3.org/2000/svg" viewBox="0 0 240 150">
  <path d="M224.616,56.25c-10.225-8.122-21.769-13.801-34.225-17.724-2.568-.809-5.188-1.457-8.259-2.311,1.049-.796,1.746-1.346,2.465-1.868,10.806-7.846,21.619-15.684,32.42-23.537,2.009-1.461,3.914-3.038,5.236-5.184,.405-.657,.791-1.305,.062-2-3.614-3.445-3.603-5.355-9.079-1.481-.49,.346-.974,.702-1.444,1.074-12.302,9.714-24.578,19.462-36.62,29.491-1.501,1.25-2.919,2.596-5.079,2.587-.505-.002-1.357,.203-.935,.826,1.026,1.515-.411,1.831-1.078,2.388-13.931,11.625-27.958,23.139-41.813,34.852-6.295,5.321-12.378,10.903-16.937,17.88-2.856,4.37-3.208,8.775-1.025,13.56,1.9,4.165,5.37,6.327,9.366,7.874,5.932,2.297,12.153,3.46,18.473,4.036,14.875,1.354,29.653,.389,44.344-2.09,14.085-2.377,27.824-5.933,40.699-12.238,4.873-2.386,9.534-5.136,13.303-9.114,5.984-6.315,7.123-12.946,3.276-20.74-3.142-6.365-7.554-11.836-13.15-16.282Zm6.033,27.135c-2.383,2.942-5.248,5.346-8.51,7.255-20.746,12.141-43.012,19.889-67.02,22.568-1.421,.159-2.845,.298-4.272,.393-2.179,.145-4.36,.242-6.541,.36-8.584,.264-16.991-.671-25.117-3.551-2.927-1.037-5.597-2.505-8.03-4.456-2.389-1.917-2.499-4.248-1.635-6.839,1.007-3.022,2.872-5.562,4.869-7.989,5.5-6.684,12.159-12.17,18.856-17.605,13.853-11.245,28.053-22.05,42.414-32.651,.908-.67,1.739-1.28,3.053-1.004,12.208,2.562,24.057,6.132,35.021,12.165,5.812,3.198,11.223,6.967,15.92,11.661,5.399,5.395,5.797,13.762,.993,19.693Z" />
  <path d="M70.796,113.848c-1.018-1.525,.451-1.825,1.111-2.376,13.929-11.627,27.957-23.14,41.811-34.854,6.294-5.322,12.384-10.899,16.928-17.887,2.789-4.289,3.188-8.61,1.089-13.354-1.894-4.281-5.397-6.489-9.467-8.065-5.932-2.296-12.154-3.455-18.475-4.029-14.875-1.351-29.653-.385-44.343,2.098-14.085,2.38-27.824,5.936-40.697,12.243-4.736,2.321-9.267,4.995-12.986,8.799-6.282,6.429-7.41,13.213-3.485,21.282,2.274,4.675,5.427,8.789,9.102,12.432,8.057,7.988,17.925,13.244,28.251,17.739,5.721,2.49,11.695,4.251,18.266,5.859-1.136,.86-1.835,1.41-2.555,1.932-10.806,7.846-21.619,15.684-32.421,23.535-1.948,1.416-3.799,2.946-5.108,5.002-.438,.687-.986,1.392-.149,2.187,3.608,3.427,3.572,5.344,9.084,1.445,.49-.346,.973-.703,1.443-1.075,12.244-9.668,24.456-19.373,36.45-29.345,1.555-1.293,2.999-2.741,5.255-2.721,.505,.004,1.334-.194,.897-.848Zm-6.488-4.725c-.907,.67-1.736,1.286-3.051,1.01-12.208-2.561-24.056-6.132-35.022-12.163-5.746-3.16-11.097-6.884-15.762-11.501-5.611-5.555-6.014-13.941-1.019-20.024,2.354-2.867,5.17-5.214,8.365-7.084,20.745-12.143,43.01-19.904,67.021-22.558,3.588-.397,7.203-.566,10.805-.841,8.59-.19,16.998,.744,25.124,3.622,2.928,1.037,5.598,2.504,8.032,4.454,2.39,1.915,2.506,4.245,1.643,6.837-.981,2.949-2.79,5.434-4.729,7.813-5.518,6.771-12.24,12.298-18.994,17.782-13.851,11.247-28.052,22.051-42.413,32.652Z" />
  <path d="M128.231,114.464c-10.206-.02-20.831,.29-30.738-1.94-2.539-2.717-4.233,1.505-7.35,.912,3.368-3.621,6.296-6.813,9.599-10.379,1.649-1.347-.13-3.487-1.737-2.044-4.129,3.109-7.445,7.162-11.213,10.682-.309,.307-.498,.863-1.225,.684,.275-.403,.559-.683,.678-1.02,.389-1.097,2.582-1.912,1.38-3.007-.99-.902-2.103,.919-3.092,1.601-1.985,1.368-3.741,3.081-6.305,4.221-1.054-.495,4.453-5.276,3.167-5.281-1.339,1.538-6.916,4.613-5.604,6.639,1.898,1.666,4.733-2.28,6.165-.817,.829,1.362,2.612,.93,3.643,1.643,3.399,2.48,6.07-.105,9.364-.622,13.172,.306,26.317,.344,39.481-.198-2.019-.887-4.112-1.11-6.213-1.075Z" />
  <path d="M97.964,107.738c-.175,2.293,3.866,1.094,4.111-.422,.205-1.043-.891-.914-1.651-.917-1.008,.096-2.252-.068-2.46,1.34Z" />
</svg>