<?xml version="1.0" encoding="UTF-8"?>
<svg className="legacy-logo" viewBox="0 0 68 64">
  <path d="M14.632,44.733c-.859-4.296-1.391-8.784-1.472-13.163-.014-.822-.005-1.652,.022-2.487-1.995-.62-3.466-2.547-3.466-2.547,0,0,1.689-2.212,3.903-2.658,1.039-7.653,3.849-15.339,8.748-21.233C13.912,6.105,7.221,13.87,6.991,22.986c-.209,8.325-2.983,9.697-6.532,12.208,3.561,2.114,3.247,6.772-.46,8.612,.631,3.235,1.688,6.32,3.114,9.197,4.237,1.064,7.303,5.153,6.88,9.623l12.646,1.374c-1.301-1.587-2.43-3.294-3.351-5.044-2.339-4.448-3.651-9.344-4.656-14.222Z" />
  <path d="M26.225,1.379c-.182,.194-.363,.39-.54,.588-5.397,6.203-8.606,13.993-10.167,22.004,2.028,.599,3.53,2.566,3.53,2.566,0,0-1.914,2.506-4.337,2.721-1.242,10.28,.54,19.952,6.153,28.824,.961,1.572,2.016,3.112,3.175,4.569,3.541-3.226,7.711-5.786,12.303-7.503-2.709-4.3-4.234-9.421-4.089-14.912,.376-14.208,11.996-25.706,26.207-25.942,3.354-.056,6.57,.509,9.54,1.585C59.471,2.212,41.44-2.671,26.225,1.379Z" />
  <symbol id="legacy-icon" viewBox="0 0 68 64">
    <path d="M14.632,44.733c-.859-4.296-1.391-8.784-1.472-13.163-.014-.822-.005-1.652,.022-2.487-1.995-.62-3.466-2.547-3.466-2.547,0,0,1.689-2.212,3.903-2.658,1.039-7.653,3.849-15.339,8.748-21.233C13.912,6.105,7.221,13.87,6.991,22.986c-.209,8.325-2.983,9.697-6.532,12.208,3.561,2.114,3.247,6.772-.46,8.612,.631,3.235,1.688,6.32,3.114,9.197,4.237,1.064,7.303,5.153,6.88,9.623l12.646,1.374c-1.301-1.587-2.43-3.294-3.351-5.044-2.339-4.448-3.651-9.344-4.656-14.222Z" />
    <path d="M26.225,1.379c-.182,.194-.363,.39-.54,.588-5.397,6.203-8.606,13.993-10.167,22.004,2.028,.599,3.53,2.566,3.53,2.566,0,0-1.914,2.506-4.337,2.721-1.242,10.28,.54,19.952,6.153,28.824,.961,1.572,2.016,3.112,3.175,4.569,3.541-3.226,7.711-5.786,12.303-7.503-2.709-4.3-4.234-9.421-4.089-14.912,.376-14.208,11.996-25.706,26.207-25.942,3.354-.056,6.57,.509,9.54,1.585C59.471,2.212,41.44-2.671,26.225,1.379Z" />
  </symbol>
</svg>