<?xml version="1.0" encoding="UTF-8"?>
<svg className="legacy-logo" viewBox="0 0 68 64">
  <path d="M19.289,58.956c.921,1.751,2.05,3.457,3.351,5.044l-12.646-1.373c.423-4.469-2.643-8.559-6.88-9.623-1.425-2.876-2.482-5.962-3.114-9.197,3.706-1.84,4.021-6.498,.46-8.612,3.548-2.511,6.322-3.883,6.532-12.209,.229-9.116,6.921-16.881,15.376-20.341-5.007,6.024-7.83,13.92-8.813,21.74l-1.272-.254c-.229,.534-.356,1.122-.356,1.739s.127,1.204,.356,1.739c.216,.503,.526,.957,.904,1.346-.031,.879-.041,1.752-.026,2.616,.081,4.378,.613,8.867,1.472,13.163,1.006,4.879,2.317,9.774,4.656,14.222ZM26.225,1.379c-.182,.194-.363,.39-.54,.588-5.571,6.404-8.811,14.498-10.313,22.782l5.623,1.122c-2.182,0-6.145,2.29-6.171,2.503-1.455,10.61,3.646,26.973,9.215,34.278,3.54-3.225,7.722-5.774,12.333-7.452-2.729-4.31-4.265-9.451-4.119-14.963,.376-14.207,11.996-25.706,26.207-25.942,3.354-.056,6.57,.509,9.54,1.585C59.471,2.212,41.44-2.671,26.225,1.379Z" />
  <symbol id="legacy-icon" viewBox="0 0 68 64">
    <path d="M19.289,58.956c.921,1.751,2.05,3.457,3.351,5.044l-12.646-1.373c.423-4.469-2.643-8.559-6.88-9.623-1.425-2.876-2.482-5.962-3.114-9.197,3.706-1.84,4.021-6.498,.46-8.612,3.548-2.511,6.322-3.883,6.532-12.209,.229-9.116,6.921-16.881,15.376-20.341-5.007,6.024-7.83,13.92-8.813,21.74l-1.272-.254c-.229,.534-.356,1.122-.356,1.739s.127,1.204,.356,1.739c.216,.503,.526,.957,.904,1.346-.031,.879-.041,1.752-.026,2.616,.081,4.378,.613,8.867,1.472,13.163,1.006,4.879,2.317,9.774,4.656,14.222ZM26.225,1.379c-.182,.194-.363,.39-.54,.588-5.571,6.404-8.811,14.498-10.313,22.782l5.623,1.122c-2.182,0-6.145,2.29-6.171,2.503-1.455,10.61,3.646,26.973,9.215,34.278,3.54-3.225,7.722-5.774,12.333-7.452-2.729-4.31-4.265-9.451-4.119-14.963,.376-14.207,11.996-25.706,26.207-25.942,3.354-.056,6.57,.509,9.54,1.585C59.471,2.212,41.44-2.671,26.225,1.379Z" />
  </symbol>
</svg>