<?xml version="1.0" encoding="UTF-8"?>
<svg className="location-icon-svg" viewBox="0 0 24 30">
  <path
    d="M20.485,3.515C18.314,1.343,15.314,0,12,0S5.687,1.343,3.515,3.515C1.344,5.686,0,8.686,0,12c0,3.606,1.344,6.871,3.515,9.235l7.758,8.443c.395,.43,1.061,.43,1.455,0l7.758-8.443c2.172-2.363,3.515-5.628,3.515-9.235,0-3.314-1.343-6.314-3.515-8.485ZM12,20c-4.418,0-8-3.582-8-8S7.582,4,12,4s8,3.582,8,8-3.582,8-8,8Z" />
  <symbol id="location-icon" viewBox="0 0 24 30">
    <path
      d="M20.485,3.515C18.314,1.343,15.314,0,12,0S5.687,1.343,3.515,3.515C1.344,5.686,0,8.686,0,12c0,3.606,1.344,6.871,3.515,9.235l7.758,8.443c.395,.43,1.061,.43,1.455,0l7.758-8.443c2.172-2.363,3.515-5.628,3.515-9.235,0-3.314-1.343-6.314-3.515-8.485ZM12,20c-4.418,0-8-3.582-8-8S7.582,4,12,4s8,3.582,8,8-3.582,8-8,8Z" />
  </symbol>
  <defs>
    <clipPath id='location-icon-clip' clipPathUnits="objectBoundingBox" fill='#000'>
      <path
        d="M20.485,3.515C18.314,1.343,15.314,0,12,0S5.687,1.343,3.515,3.515C1.344,5.686,0,8.686,0,12c0,3.606,1.344,6.871,3.515,9.235l7.758,8.443c.395,.43,1.061,.43,1.455,0l7.758-8.443c2.172-2.363,3.515-5.628,3.515-9.235,0-3.314-1.343-6.314-3.515-8.485ZM12,20c-4.418,0-8-3.582-8-8S7.582,4,12,4s8,3.582,8,8-3.582,8-8,8Z" />
    </clipPath>
  </defs>
</svg>