<?xml version="1.0" encoding="UTF-8"?>
<svg className="puzzle-icon" viewBox="0 0 32 28.444">
  <path d="M26.21,23.102c0-.795-.303-1.591-.91-2.198-.21-.21-.442-.383-.688-.52-.61-.339-.745-1.155-.251-1.649l3.781-3.781c.405-.405,.405-1.061,0-1.465l-3.781-3.781c-.494-.494-.359-1.309,.251-1.649,.247-.137,.479-.311,.688-.52,.607-.607,.91-1.402,.91-2.198s-.303-1.591-.91-2.198-1.402-.91-2.198-.91c-.795,0-1.591,.303-2.198,.91-.21,.21-.383,.442-.52,.688-.339,.61-1.155,.745-1.649,.251L14.955,.303c-.405-.405-1.061-.405-1.465,0l-3.781,3.781c-.494,.494-.359,1.309,.251,1.649,.247,.137,.479,.311,.688,.52,.607,.607,.91,1.402,.91,2.198,0,.795-.303,1.591-.91,2.198s-1.402,.91-2.198,.91-1.591-.303-2.198-.91c-.21-.21-.383-.442-.52-.688-.339-.61-1.155-.745-1.649-.251L.303,13.49c-.405,.405-.405,1.061,0,1.465l3.78,3.78c.494,.494,1.309,.359,1.649-.251,.137-.247,.311-.479,.52-.688,.607-.607,1.402-.91,2.198-.91,.795,0,1.591,.303,2.198,.91s.91,1.402,.91,2.198-.303,1.591-.91,2.198c-.21,.21-.442,.383-.688,.52-.61,.339-.745,1.155-.251,1.649l3.781,3.781c.405,.405,1.061,.405,1.465,0l3.781-3.781c.494-.494,1.309-.359,1.649,.251,.137,.247,.311,.479,.52,.688,.607,.607,1.402,.91,2.198,.91,.795,0,1.591-.303,2.198-.91s.91-1.402,.91-2.198Z" />
  <symbol id="puzzle-icon" viewBox="0 0 32 28.444">
    <path d="M26.21,23.102c0-.795-.303-1.591-.91-2.198-.21-.21-.442-.383-.688-.52-.61-.339-.745-1.155-.251-1.649l3.781-3.781c.405-.405,.405-1.061,0-1.465l-3.781-3.781c-.494-.494-.359-1.309,.251-1.649,.247-.137,.479-.311,.688-.52,.607-.607,.91-1.402,.91-2.198s-.303-1.591-.91-2.198-1.402-.91-2.198-.91c-.795,0-1.591,.303-2.198,.91-.21,.21-.383,.442-.52,.688-.339,.61-1.155,.745-1.649,.251L14.955,.303c-.405-.405-1.061-.405-1.465,0l-3.781,3.781c-.494,.494-.359,1.309,.251,1.649,.247,.137,.479,.311,.688,.52,.607,.607,.91,1.402,.91,2.198,0,.795-.303,1.591-.91,2.198s-1.402,.91-2.198,.91-1.591-.303-2.198-.91c-.21-.21-.383-.442-.52-.688-.339-.61-1.155-.745-1.649-.251L.303,13.49c-.405,.405-.405,1.061,0,1.465l3.78,3.78c.494,.494,1.309,.359,1.649-.251,.137-.247,.311-.479,.52-.688,.607-.607,1.402-.91,2.198-.91,.795,0,1.591,.303,2.198,.91s.91,1.402,.91,2.198-.303,1.591-.91,2.198c-.21,.21-.442,.383-.688,.52-.61,.339-.745,1.155-.251,1.649l3.781,3.781c.405,.405,1.061,.405,1.465,0l3.781-3.781c.494-.494,1.309-.359,1.649,.251,.137,.247,.311,.479,.52,.688,.607,.607,1.402,.91,2.198,.91,.795,0,1.591-.303,2.198-.91s.91-1.402,.91-2.198Z" />
  </symbol>
</svg>