<?xml version="1.0" encoding="UTF-8"?>
<svg className="tools-icon" viewBox="0 0 38.753 32">
  <path d="M35.526,9.759c1.696-1.696,2.101-4.192,1.22-6.274l-3.747,3.746-3.032-3.032,3.747-3.747c-2.081-.881-4.577-.477-6.274,1.22-1.496,1.496-1.984,3.612-1.476,5.519l-6.587,6.587-5.253-5.253c-1.569-1.569-1.276-4.193,.604-5.37,1.526-.956,3.056-1.572,4.434-1.801l.106-1.16c-3.285-.696-7.165,.484-10.078,3.397L5.146,7.635c.909,1.022,.875,2.588-.105,3.567-.98,.979-2.546,1.014-3.567,.105L.108,12.673l4.934,4.934,1.366-1.366c-.909-1.022-.874-2.588,.105-3.567,.98-.979,2.545-1.014,3.567-.105l5.253,5.253L6.036,27.119c-1.117,1.116-1.117,2.927,0,4.043h0c1.116,1.116,2.927,1.116,4.043,0l9.297-9.297,9.297,9.297c1.117,1.117,2.927,1.117,4.043,0h0c1.116-1.117,1.117-2.927,0-4.044l-9.297-9.297,6.587-6.587c1.907,.508,4.024,.019,5.52-1.476Z" />
  <symbol id="tools-icon" viewBox="0 0 38.753 32">
    <path d="M35.526,9.759c1.696-1.696,2.101-4.192,1.22-6.274l-3.747,3.746-3.032-3.032,3.747-3.747c-2.081-.881-4.577-.477-6.274,1.22-1.496,1.496-1.984,3.612-1.476,5.519l-6.587,6.587-5.253-5.253c-1.569-1.569-1.276-4.193,.604-5.37,1.526-.956,3.056-1.572,4.434-1.801l.106-1.16c-3.285-.696-7.165,.484-10.078,3.397L5.146,7.635c.909,1.022,.875,2.588-.105,3.567-.98,.979-2.546,1.014-3.567,.105L.108,12.673l4.934,4.934,1.366-1.366c-.909-1.022-.874-2.588,.105-3.567,.98-.979,2.545-1.014,3.567-.105l5.253,5.253L6.036,27.119c-1.117,1.116-1.117,2.927,0,4.043h0c1.116,1.116,2.927,1.116,4.043,0l9.297-9.297,9.297,9.297c1.117,1.117,2.927,1.117,4.043,0h0c1.116-1.117,1.117-2.927,0-4.044l-9.297-9.297,6.587-6.587c1.907,.508,4.024,.019,5.52-1.476Z" />
  </symbol>
</svg>