<?xml version="1.0" encoding="UTF-8"?>
<svg className="vie-crown" viewBox="0 0 38.982 64">
  <path d="M19.491,64l19.491-19.491-6.139-1.949,2.015-35.508c1.21-.058,2.264-.908,2.455-2.152,.218-1.42-.756-2.748-2.176-2.967-1.42-.219-2.749,.756-2.967,2.176-.191,1.244,.558,2.372,1.695,2.791l-9.052,32.326c-.149,.532-.921,.469-.983-.079L19.993,5.102c1.187-.241,2.099-1.241,2.099-2.5,0-1.437-1.165-2.602-2.602-2.602s-2.602,1.165-2.602,2.602c0,1.259,.912,2.259,2.099,2.5l-3.836,34.044c-.062,.548-.834,.611-.983,.079L5.117,6.9c1.137-.419,1.886-1.546,1.695-2.791-.219-1.42-1.547-2.394-2.967-2.176-1.42,.218-2.394,1.547-2.176,2.967,.191,1.244,1.245,2.094,2.455,2.152l2.015,35.508-6.139,1.949,19.491,19.491Z" />
  <symbol id="vie-crown" viewBox="0 0 38.982 64">
    <path d="M19.491,64l19.491-19.491-6.139-1.949,2.015-35.508c1.21-.058,2.264-.908,2.455-2.152,.218-1.42-.756-2.748-2.176-2.967-1.42-.219-2.749,.756-2.967,2.176-.191,1.244,.558,2.372,1.695,2.791l-9.052,32.326c-.149,.532-.921,.469-.983-.079L19.993,5.102c1.187-.241,2.099-1.241,2.099-2.5,0-1.437-1.165-2.602-2.602-2.602s-2.602,1.165-2.602,2.602c0,1.259,.912,2.259,2.099,2.5l-3.836,34.044c-.062,.548-.834,.611-.983,.079L5.117,6.9c1.137-.419,1.886-1.546,1.695-2.791-.219-1.42-1.547-2.394-2.967-2.176-1.42,.218-2.394,1.547-2.176,2.967,.191,1.244,1.245,2.094,2.455,2.152l2.015,35.508-6.139,1.949,19.491,19.491Z" />
  </symbol>
</svg>