<?xml version="1.0" encoding="UTF-8"?>
<svg id="xword-full-logo" data-name="Layer 2" xmlns="http://www.w3.org/2000/svg" width="895.35" height="309.046" viewBox="0 0 895.35 309.046">
  <path className='outline' d="M879.262,163.498c-10.675-10.675-25.498-16.087-44.055-16.087h-265.822c-2.72,0-5.329-1.081-7.252-3.004l-54.377-54.377c-4.005-4.005-10.499-4.005-14.504,0l-72.523,72.522c-4.005,4.005-10.499,4.005-14.504,0l-72.523-72.522c-4.005-4.005-10.499-4.005-14.504,0l-72.521,72.522c-4.005,4.005-10.499,4.005-14.504,0l-2.901-2.9c-4.006-4.005-4.006-10.499,0-14.505l72.522-72.522c4.005-4.005,4.005-10.499,0-14.504L246.678,3.004c-4.005-4.005-10.499-4.005-14.504,0l-72.521,72.522c-4.005,4.005-10.499,4.005-14.504,0L72.626,3.004c-4.005-4.005-10.499-4.005-14.504,0L3.004,58.121c-4.005,4.005-4.005,10.499,0,14.504l72.521,72.521c4.005,4.005,4.005,10.499,0,14.504L3.004,232.173c-4.005,4.005-4.005,10.499,0,14.504l55.118,55.117c4.005,4.005,10.499,4.005,14.504,0l72.522-72.522c4.005-4.005,10.499-4.005,14.504,0l72.521,72.522c4.005,4.005,10.499,4.005,14.504,0l72.521-72.522c4.005-4.005,10.499-4.005,14.504,0l73.766,73.766c3.847,3.847,9.064,6.008,14.504,6.008h413.233c18.557,0,33.38-5.412,44.055-16.087s16.087-25.498,16.087-44.055v-41.353c0-18.559-5.413-33.382-16.087-44.053Z" />
  <g className='letters'>
    <path d="M750.449,240.118c3.159-5.282,4.739-12.692,4.739-22.229v-15.506c0-12.061-2.73-20.819-8.185-26.275-5.457-5.455-14.214-8.185-26.275-8.185h-67.368c-2.761,0-5,2.239-5,5v110.612c0,2.761,2.239,5,5,5h21.015c2.761,0,5-2.239,5-5v-29.183c0-1.105,.895-2,2-2h19.159c1.827,0,3.508,.996,4.385,2.598l16.969,30.986c.877,1.602,2.559,2.598,4.385,2.598h22.045c3.834,0,6.241-4.137,4.347-7.47l-17.294-30.438c6.893-1.723,11.917-5.224,15.076-10.509Zm-26.275-22.229c0,5.71-4.629,10.338-10.338,10.338h-32.46c-1.105,0-2-.895-2-2v-32.183c0-1.105,.895-2,2-2h32.46c5.71,0,10.338,4.629,10.338,10.338v15.506Z" fill="aqua" />
    <path d="M864.758,178.003c-6.721-6.721-16.57-10.08-29.55-10.08h-62.198c-2.761,0-5,2.239-5,5v110.612c0,2.761,2.239,5,5,5h62.198c12.98,0,22.83-3.359,29.55-10.08s10.08-16.568,10.08-29.55v-41.353c0-12.978-3.359-22.83-10.08-29.548Zm-20.935,70.902c0,8.565-6.943,15.508-15.508,15.508h-27.29c-1.105,0-2-.895-2-2v-68.368c0-1.105,.895-2,2-2h27.292c8.564,0,15.506,6.942,15.506,15.506v41.353Z" fill="aqua" />
    <rect x="40.758" y="40.758" width="49.229" height="49.229" rx="4.102" ry="4.102" transform="translate(-27.078 65.373) rotate(-45)" fill="aqua" />
    <path d="M88.374,84.271h41.024c2.264,0,4.102,1.838,4.102,4.102v41.024c0,2.264-1.838,4.102-4.102,4.102h-41.024c-2.264,0-4.103-1.838-4.103-4.103v-41.024c0-2.264,1.838-4.102,4.102-4.102Z" transform="translate(-45.102 108.886) rotate(-45)" fill="aqua" />
    <rect x="127.785" y="127.784" width="49.229" height="49.229" rx="4.102" ry="4.102" transform="translate(-63.126 152.399) rotate(-45)" fill="aqua" />
    <path d="M175.4,84.271h41.025c2.264,0,4.102,1.838,4.102,4.102v41.024c0,2.264-1.838,4.103-4.103,4.103h-41.024c-2.264,0-4.102-1.838-4.102-4.102v-41.024c0-2.264,1.838-4.102,4.102-4.102Z" transform="translate(-19.613 170.422) rotate(-45)" fill="aqua" />
    <rect x="84.272" y="171.297" width="49.229" height="49.229" rx="4.102" ry="4.102" transform="translate(-106.639 134.376) rotate(-45)" fill="aqua" />
    <path d="M218.913,40.758h41.025c2.264,0,4.102,1.838,4.102,4.102v41.024c0,2.264-1.838,4.103-4.103,4.103h-41.025c-2.264,0-4.102-1.838-4.102-4.102V44.861c0-2.264,1.838-4.103,4.103-4.103Z" transform="translate(23.9 188.446) rotate(-45)" fill="aqua" />
    <rect x="40.759" y="214.81" width="49.229" height="49.229" rx="4.102" ry="4.102" transform="translate(-150.152 116.352) rotate(-45)" fill="aqua" />
    <path d="M532.413,149.498l-29.009-29.009c-1.602-1.602-4.2-1.602-5.802,0l-81.224,81.224c-1.602,1.602-4.2,1.602-5.802,0l-81.224-81.224c-1.602-1.602-4.2-1.602-5.802,0l-116.035,116.035c-1.602,1.602-1.602,4.2,0,5.802l29.009,29.009c1.602,1.602,4.2,1.602,5.802,0l81.224-81.225c1.602-1.602,4.2-1.602,5.802,0l81.224,81.224c1.602,1.602,4.2,1.602,5.802,0l116.035-116.035c1.602-1.602,1.602-4.2,0-5.802Z" fill="aqua" />
    <path d="M175.4,171.297h41.025c2.264,0,4.103,1.838,4.103,4.103v41.024c0,2.264-1.838,4.102-4.102,4.102h-41.025c-2.264,0-4.103-1.838-4.103-4.103v-41.024c0-2.264,1.838-4.102,4.102-4.102Z" transform="translate(-81.149 195.912) rotate(-45)" fill="aqua" />
    <path d="M599.653,166.2h-43.076c-12.061,0-20.823,2.728-26.277,8.183-5.457,5.459-8.183,14.216-8.183,26.277v55.137c0,12.061,2.726,20.821,8.183,26.275,5.455,5.459,14.216,8.185,26.277,8.185h43.076c12.061,0,20.819-2.726,26.275-8.185,5.455-5.455,8.185-14.214,8.185-26.275v-55.137c0-12.061-2.73-20.819-8.185-26.277-5.457-5.455-14.214-8.183-26.275-8.183Zm3.445,89.597c0,6.893-3.445,10.338-10.338,10.338h-29.292c-6.891,0-10.336-3.445-10.336-10.338v-55.137c0-6.893,3.445-10.338,10.336-10.338h29.292c6.893,0,10.338,3.445,10.338,10.338v55.137Z" fill="aqua" />
  </g>
</svg>